<mxfile host="app.diagrams.net" modified="2024-04-24T18:43:05.735Z" agent="Mozilla/5.0 (Macintosh; Intel Mac OS X 10_15_7) AppleWebKit/537.36 (KHTML, like Gecko) Chrome/124.0.0.0 Safari/537.36" etag="HMFuM-rWFrU3NraLZoNM" version="24.3.0" type="device">
  <diagram name="Page-1" id="xRTiAu2gwgZz0Hc4Vy2F">
    <mxGraphModel dx="1242" dy="695" grid="1" gridSize="10" guides="1" tooltips="1" connect="1" arrows="1" fold="1" page="1" pageScale="1" pageWidth="850" pageHeight="1100" math="0" shadow="0">
      <root>
        <mxCell id="0" />
        <mxCell id="1" parent="0" />
        <mxCell id="7A2PeuC5X-wrDi85Rw4v-3" value="" style="endArrow=none;html=1;rounded=0;" edge="1" parent="1">
          <mxGeometry width="50" height="50" relative="1" as="geometry">
            <mxPoint x="400" y="540" as="sourcePoint" />
            <mxPoint x="400" y="100" as="targetPoint" />
          </mxGeometry>
        </mxCell>
        <mxCell id="7A2PeuC5X-wrDi85Rw4v-4" value="" style="endArrow=none;html=1;rounded=0;" edge="1" parent="1">
          <mxGeometry width="50" height="50" relative="1" as="geometry">
            <mxPoint x="620" y="320" as="sourcePoint" />
            <mxPoint x="180" y="320" as="targetPoint" />
          </mxGeometry>
        </mxCell>
        <mxCell id="7A2PeuC5X-wrDi85Rw4v-5" value="&lt;font style=&quot;font-size: 20px;&quot;&gt;Acting&lt;/font&gt;" style="text;html=1;align=center;verticalAlign=middle;whiteSpace=wrap;rounded=0;" vertex="1" parent="1">
          <mxGeometry x="360" y="60" width="80" height="40" as="geometry" />
        </mxCell>
        <mxCell id="7A2PeuC5X-wrDi85Rw4v-6" value="&lt;font style=&quot;font-size: 20px;&quot;&gt;Iteracting&lt;/font&gt;" style="text;html=1;align=center;verticalAlign=middle;whiteSpace=wrap;rounded=0;" vertex="1" parent="1">
          <mxGeometry x="345" y="540" width="110" height="40" as="geometry" />
        </mxCell>
        <mxCell id="7A2PeuC5X-wrDi85Rw4v-7" value="&lt;font style=&quot;font-size: 20px;&quot;&gt;Players&lt;/font&gt;" style="text;html=1;align=center;verticalAlign=middle;whiteSpace=wrap;rounded=0;" vertex="1" parent="1">
          <mxGeometry x="620" y="300" width="90" height="40" as="geometry" />
        </mxCell>
        <mxCell id="7A2PeuC5X-wrDi85Rw4v-8" value="&lt;font style=&quot;font-size: 20px;&quot;&gt;World&lt;/font&gt;" style="text;html=1;align=center;verticalAlign=middle;whiteSpace=wrap;rounded=0;" vertex="1" parent="1">
          <mxGeometry x="100" y="300" width="80" height="40" as="geometry" />
        </mxCell>
        <mxCell id="7A2PeuC5X-wrDi85Rw4v-9" value="&lt;font style=&quot;font-size: 20px;&quot;&gt;&lt;b&gt;Achievers&lt;/b&gt;&lt;/font&gt;" style="text;html=1;align=center;verticalAlign=middle;whiteSpace=wrap;rounded=0;" vertex="1" parent="1">
          <mxGeometry x="485" y="160" width="110" height="40" as="geometry" />
        </mxCell>
        <mxCell id="7A2PeuC5X-wrDi85Rw4v-10" value="&lt;font style=&quot;font-size: 20px;&quot;&gt;&lt;b&gt;Killers&lt;/b&gt;&lt;/font&gt;" style="text;html=1;align=center;verticalAlign=middle;whiteSpace=wrap;rounded=0;" vertex="1" parent="1">
          <mxGeometry x="220" y="160" width="80" height="40" as="geometry" />
        </mxCell>
        <mxCell id="7A2PeuC5X-wrDi85Rw4v-11" value="&lt;font style=&quot;font-size: 20px;&quot;&gt;&lt;b&gt;Explorers&lt;/b&gt;&lt;/font&gt;" style="text;html=1;align=center;verticalAlign=middle;whiteSpace=wrap;rounded=0;" vertex="1" parent="1">
          <mxGeometry x="480" y="440" width="120" height="40" as="geometry" />
        </mxCell>
        <mxCell id="7A2PeuC5X-wrDi85Rw4v-12" value="&lt;font style=&quot;font-size: 20px;&quot;&gt;&lt;b&gt;Socializers&lt;/b&gt;&lt;/font&gt;" style="text;html=1;align=center;verticalAlign=middle;whiteSpace=wrap;rounded=0;" vertex="1" parent="1">
          <mxGeometry x="195" y="440" width="130" height="40" as="geometry" />
        </mxCell>
      </root>
    </mxGraphModel>
  </diagram>
</mxfile>
